<?xml version="1.0" encoding="UTF-8"?>
<svg id="Capa_2" data-name="Capa 2" xmlns="http://www.w3.org/2000/svg" viewBox="0 0 1253.99 678.22">
  <g id="Capa_1-2" data-name="Capa 1">
    <g>
      <path d="M1253.99,355.54v3.84s-5.9,7.07-5.9,7.07c-4.11,5.11-10.17,7.96-16.51,7.25,1.85,11.58-4.22,20.83-16.03,23.12l-.02,79.84c-3.5,17.97-12.22,33.17-27.31,42.79-13.05,8.52-27.72,12.04-43.2,11.97l-20.31-.08-289.41-.02c-5.63,13.9-20.59,20.75-35.32,22.17-18,1.73-35.82-2.66-49.48-14.66l-5.61-7.45-14.39-.08c-1.16,9.3-8.11,14.24-18.19,15.17,4.13,1.88,8.74,3.64,11.26,7.35-1.78,4.42-6.47,8.16-11.07,8.71l-8.86,1.06c6.95,8.33,16.58,7.23,24.1,1.48,8.55-6.54,18.1-12.01,29.09-11.52,14.71.66,26.56,9.8,30.06,23.71,1.19,4.74.04,9.61-2.6,12.75l-7.94-5.35c-1.68-1.13-6.2-.53-7.78.61s-3.55,4.72-3.28,6.93c2.28,18.77-9.86,30.47-27.06,36.31-30.72,10.44-62.84-6.22-72.34-37.13-2.8-9.12-4.29-17.1-4.48-27.57-2.24-.49-5.62-.74-8.36-.62.82,15.58,7.72,27.84,15.63,40.43l6.93,11.04c5.18,8.25,4.75,18.84-.26,27.21-4.41,7.37-11.65,12.35-20.04,15.04-.84,8.98-6.25,15.94-14.59,19.2-7.43,2.9-14.97,2.74-22.39-.1-8.03-3.07-13.62-9.71-13.94-19.09-7.78-2.47-14.34-7.08-19.01-13.92-6.78-9.95-5.14-22.04,1.29-31.93l11-16.91c6.1-9.38,8.82-19.43,9.58-31.06l-8.47.22c-1.3,14.6-3.14,28.01-10.35,40.62-16.83,29.44-54.16,35.86-80.97,18.18-9.98-6.58-15.08-17.1-13.95-28.76.35-3.58-1.84-7.25-4.68-8.4-6.73-2.74-9.69,3.51-14.78,5.17-2.86-3.83-3.2-8.96-1.75-13.73,5.16-17.08,23.19-26.26,40.44-21.55,7.55,2.06,13.54,6.47,19.71,10.95,7.72,5.61,18.27,5.75,24.05-2.6-8.93.42-15.14-1.27-20.75-8.91l10.31-7.7c-9.85-1.88-15.34-5.53-17.02-15.12l-14.28-.27c-19.48,28.94-77.94,32.21-93.69.16l-315.9-.23c-18.26-.01-35.21-7.86-47.57-20.33-8.89-8.98-16.27-21.2-16.46-34.32l-1.17-79.64c-11.78-2.47-18.91-12.81-16.16-23.55-8.7,2.4-15.8-3.98-20.93-10.76l-2.88-3.23v-2.92s6.49-7.56,6.49-7.56c4.39-5.25,10.04-8.86,17.01-7.86-1.45-11.55,5.99-20.04,16.81-22.83l.61-71.33c.13-14.99,10.55-27.39,22.96-34.33,9.63-5.38,19.2-8.17,29.98-11.25,45.44-12.97,91.4-23.08,138.21-31.63,88.46-16.15,176.68-26.38,267.56-32.06-8.01-5.67-11.78-14.31-9.26-23.31,2.42-8.62,10.88-13.59,20.64-13.57-.13-2.97.46-6.66,2.06-7.6,2.1-1.24,5.28-.36,7.17.91l5.59,3.74c-.75-5.11-1.12-9.41.98-13.76,1.36-2.83,5.77-6.37,9.9-6.28,3.27.08,1.54,7.87,4.28,10.35,4.3,3.91,11.27-3,16.59-8.97,12.15-13.65,29.13-17.96,45.8-8.45-3.98-6.03-7.21-10.87-6.47-17.64,1.52-13.77,16.2-13.88,21.17-28.87-5.54-5.01-6.22-12.48-1.56-18.34,3.64-4.58,9.88-6.54,15.55-5.49,5.79,1.07,10.02,4.38,11.84,8.85,2.39,5.85.64,10.76-3.2,15.42,1.63,6.35,6.97,11.2,12.29,14.85,6.53,4.48,10.62,11.55,8.34,19.64-1.25,4.44-4.47,8.21-7.35,12.75,19.91-13.01,39.02-4.15,53.23,13.45,2.3,2.84,9.23,5.44,10.9,1.59,1.23-2.84,1.97-7.14,3.9-9.14,4.92-.05,8.84,2.77,10.71,7.13,1.7,3.98.94,8.94.38,13.79,3.01-3.02,7.13-6.88,11.05-6.41,4.39.53,5.27,5.62,3.54,8.96,10.62-1.21,19.34,4.22,21.93,13.15,2.62,9.05-1.61,18.24-10.05,23.01l83.15,6.8,86.71,10.1c64.35,8.86,127.44,20.26,190.52,35.35l43.31,11.75c11.51,3.12,22.66,6.78,32.67,13.17,12.16,7.77,19.6,21.44,19.61,35.8l.05,67.9c11.05,2.86,17.61,12.4,16.8,22.33,5.02.09,9.25,1.18,12.2,4.31l6.59,7.01,2.8,3.72ZM629,21.39c3.61-1.09,9.12-4.57,8.57-8.56-.85-6.11-8.34-7.4-12.98-4.93-3.23,1.72-5.98,6.88-2.26,9.25l6.67,4.24ZM620.19,117.21l7.13-.46-.02-90.85.43-2.52c.08-.48-1.4-.52-2.35-.48-1.13,9.13-6.58,15.85-14.05,20.72s-9.54,12.64-4.48,19.98c2.32,3.37,5.84,7.56,7.33,11.42,5.28,13.74,5.42,27.58,6.02,42.19ZM640.23,91.41c1.76-22.69,16.48-28.29,14.2-39.22-.58-2.79-3.68-6.68-6.61-8.39-9.02-5.25-11.9-12.38-16.48-22.45l-.23,96.04,7.12-.35,1.99-25.62ZM571.7,91.61c6.82-3.97,15.12-3.88,20.38,1.72,6.2,6.59,6.18,16.09,1.75,24.05l11.99-.09c7.36-9.29,9.03-21.67,3.4-32.05-4.3-7.92-12.28-12.73-20.06-13.55-9-.95-17.12,2.09-23.59,8.37l-12.07,11.72c-5.44,5.28-14.21,3.96-19.03-1.65l-1.68-1.95c-2.23-2.59-.84,11.78,14.14,10.93,9.25-.52,16.56-2.71,24.77-7.5ZM722.1,96.66c3.9-1.56,6.03-5.51,3.58-9.56-1.33,4.5-4.8,7-9.53,7.63-13.27,1.76-17.12-15.32-33.14-21.27-12.31-4.57-25.29-.09-32.27,10.25-7.03,10.41-5.4,24.41,2.96,33.74l11.44-.13c-5.06-9.68-5.19-19.76,3-25.51,4.78-3.36,10.55-4.74,15.68-2.23l10.07,4.92c9.17,4.48,19.01,5.83,28.21,2.16ZM552.93,129.31c5.52,6.37,11.82,4.82,18.13,4.24,5.66-.41,11.53-3.89,14.17-9.13l-14.42,6.8c-4.15,1.96-9.12,1.4-12.92-.56,10.08-.12,20.08-3.07,26.5-10.88,1.53-1.86,2.54-2.83,4.8-4.39,3.9-2.7,5.19-10.05,3.17-14.23-3.37-6.96-11.23-9.34-18.07-6.53l-16.32,6.69c-5.5,2.25-13.7,2.75-18.79-.18l-6.43-3.7c2.8,6.01,9.83,8.72,16.21,8.05l11.15-1.17c3.48-.36,8.69-.93,11.43,1.33,5.56,4.58,4.71,12.53-.39,16.93s-11.19,5.06-18.23,6.72ZM684.4,116.61c-1.27-3.33.3-7.92,2.4-9.81,1.63-1.47,5.79-3.19,8.21-2.95l16.06,1.64c5.97.61,12.53-2.63,15.17-7.94-10.03,8.03-24.2,5.69-35.52-1.03-4.5-2.68-10.18-4.06-15.36-2.83-4.76,1.13-8.13,5.32-9.27,8.7-1.55,4.57-.16,11.16,3.09,13.4l3.77,1.21c.55.18.56,1.86.67,2.7,6.74,7.65,15.66,10.82,25.58,10.99-9.3,3.09-17.38-.6-25.25-5.74,3.5,6.41,9.32,8.55,16.06,8.81,6.34.25,13.74.32,16.37-6.13-9.49,1.43-18.53-1.98-21.96-11.02ZM524.84,133.88c-7.12.62-12.22.18-17.71-2.66-5.79-3.01-9.38-9.63-5.97-15.82,3.15-5.72,10.86-6.97,16.65-4.42,1.81.28,4.53-3.34,4.42-5.13-.14-2.23-2.42-4.86-4.47-5.43l1.19,7.61c-4.16-1.24-8.63-2.3-12.71-1.52-5.73,1.1-9.59,6.14-10.27,10.56-.85,5.48.74,10.8,5.45,14.08,6.78,4.71,16.34,5.83,23.41,2.74ZM764.49,119.45c.23-4.92-3.1-8.96-6.28-11.01-8.05-5.18-18.88,1.2-18.28-2.35l.96-5.69c-.94.41-3.28,3.08-3.83,4.63-.48,1.38,1.55,5.18,3.12,5.24l12.61.5c3.61.14,6.46,4.88,6.79,7.53,1.05,8.55-6.01,14.59-13.36,14.95l-10.38.5c12.27,5.63,28.13-2.77,28.66-14.31ZM553.01,117.68c.48,1.22.3,3.48.15,5.82,5.25.71,11.45-.42,14.95-5.01,1.53-2,1.68-6.24.04-7.73-5.69-5.21-22.33,7.64-40.02-8.35,3.38,12.16-9.64,13.44-5.05,20.07l3.43-5.02c.76-1.11,3.96-.81,5.16-.48,5.7-7.02,20.81-.64,21.34.69ZM712.68,115.59c4.81-2.85,11.52-3.83,14.12,1.81,2.01-.6,5.38-.91,6.57.09,1.04.88,1.78,3.39,2.65,5.66,3.23-4.66-.34-7.64-3.36-10.65-1.88-1.87-1.75-7.07-1.77-10.27-10.01,9.76-19.68,9.91-33.01,7.1-3.15-.66-7.1.97-7.91,3.65s.28,5.99,2.71,7.81c3.72,2.78,9.68,3.61,13.34,2.18,0-2.49.17-5.61,1.11-6.62s4.33-.06,5.55-.78ZM524.99,130.44c-4.49-2.67-7.25-4.31-8.13-6.55-1.32-3.36-.65-5.74.49-10.19l-5.67-.72c-2.52-.32-6.26,1.82-7.54,4.07-.97,1.71-1.21,5.89.19,7.74,4.96,6.57,14.5,9.71,20.66,5.65ZM755.16,124.85c1.38-1.75,1.97-5.46,1.25-7-2.39-5.1-8.35-5.85-14.97-4.04,3.52,5.93,2.11,11.1-2.79,14.24l-4.75,3.04c7.1,2.6,15.71.81,21.26-6.24ZM542.32,135.45l-1.65-14.8c-.07-.67-.7-2.67-1.09-2.31s-1.99,1.94-1.99,2.47l-.02,14.36,4.75.27ZM722.21,129.82l-.27-9.3c-.02-.77-1.83-2.79-2.31-2.21-2.84,3.37.28,7.96-2.08,15.84,1.45.24,4.42.59,4.46-.31l.2-4.01ZM672.06,133.32c-1.26-2.96-2-4.15-3.03-4.89l-79.76.09-1.82,5.51,15.62-.47,68.98-.24ZM1152.75,518.45c30.29-4.47,50.91-22.83,50.61-53.06l-.28-28.16-.02-162.68.14-24.26c.08-13.32-9.43-25.19-21.97-29.14l-37.41-11.77c-78.05-21-163.65-35.61-244.34-45.65-229.13-28.51-463.38-20.18-689.96,23.9-38.93,7.57-77.08,16.39-114.84,27.16-8.65,2.47-16.67,4.94-24.2,8.96-10.86,5.79-17.46,16.23-17.46,28.79l.06,219.29c0,8.13,3.58,15.85,7.48,21.83,10.66,16.33,23.7,20.64,42.61,24.85l152.98-.07h458.83s437.77.02,437.77.02ZM40.49,344.8l-.22-16.57c-5.1,1.84-7.92,5.97-7.28,11.08.46,3.68,4.33,6.54,7.5,5.49ZM1222.44,337.9c.09-4.72-2.8-7.76-6.65-9.64l-.22,16.73c3.61-.93,6.79-3.2,6.86-7.09ZM39.71,357.43c.18.15.47-1.98-.2-2l-2.58-.08c-11.35-.33-14.54-9.53-20.33-3.51l-4.75,4.93c3.15,4.22,9.07,6.52,13.12,3.14-1.84-.95-1.95-.9-4.24-2.46l18.97-.02ZM1216.63,357.42l25.32-.35c-.94-3.84-6.32-9.43-10.56-6.41-8.66,6.19-10.59,3.76-15.4,5.19-.61.18.79,2.96.64,1.57ZM40.47,385.99l-.4-17.58c-5.09,2.16-7.57,5.92-6.97,10.2.49,3.49,3.51,7.26,7.37,7.38ZM1219.48,383.59c2.3-2.07,3.56-5.91,2.6-9.48-.58-2.15-3.04-4.28-6.47-6.11l-.03,19.11,3.91-3.52ZM477.98,531.66l-35.88.12c11.08,9.11,25.97,7.71,35.88-.12ZM459.1,544.98c13.24,2.41,35.04-3.32,43.56-13.59h-12.22c-16.21,12.04-36.46,11.37-54.65,2.57,5.31,7.7,14.21,9.37,23.31,11.02ZM711.35,538.37c5.72,0,9.08-1.75,9.83-7.01l-182.32.03c.33,2.56,2.6,6.15,5.33,7.06l167.16-.08ZM821.34,533.53c-17.4,9.83-37.56,9.46-53.52-2.19l-12.27.19c8.89,9.05,20.96,12.93,33.23,13.24l7.51.19c8.97-1.47,19.3-2.82,25.05-11.44ZM815.49,531.47l-37.05.13c11.21,9.02,26.57,8.52,37.05-.13ZM710.1,554.22c-4.75-2.7-10.39-3.22-14.43,0h14.43ZM578.95,575.75l2.6-12.85-14.34.28c-7.46,15.08-25.61,19.05-38.78,9.78l-8.86-6.24c-12.86-9.05-31.35-5.71-37.45,8.68l15.05-5.65c6.06-2.28,13.42-2.07,18.55,2,4.44,3.51,8.02,8.99,7.6,15.86-.37,6.14,2.13,12.59,8.08,15.37,18.7,8.75,43.29-6.1,47.55-27.22ZM722.99,604.73c6.51-1.39,13.25-6.2,13.03-13.31-.26-8.38,1.62-17.46,9.63-21.12,13.44-6.15,20.14,3.82,30.94,3.92-6.21-12.64-22.03-16.6-33.84-9.05l-13.97,8.93c-12.75,8.15-29.57,2.77-35.56-11.25l-14.65.24c2.88,24.85,18.86,47.09,44.43,41.65ZM508.28,610.26c6.25,6.16,14.79,9.31,23.57,11.3,8.91,2.03,17.84.29,26.7-2.88,20.23-7.24,33.71-36.59,29.89-56.83-4.48,13.68-5.51,26.16-14.98,35.82-7.06,7.21-14.34,12.14-24.67,13.55-8.54,1.16-18.4-.18-24.24-7.42-9.55-11.85-4.15-27.05-18.03-30.78-5.03-1.35-9.83.19-14.07,3.26,17.76,6.41,4.39,22.71,15.83,33.98ZM662.43,642.36c9.06-7.7,8.79-19.22,1.79-28.28-11.49-14.86-19.57-31.34-20.25-50.72l-11.49.23v90.81s-2.91,2.13-2.91,2.13c-.59.43-2.76-1.57-2.92-2.46-.71-3.89-.17-11.24-.16-16.19l.2-74.95-10.51.02c-.87,20.68-9.88,36.58-21.2,52.36-4.31,6.01-6.17,13.94-2.4,20.52,5.52,9.65,11.48,10.61,21.6,14.43-2.27,8,1.71,14.44,9.3,16.91,6.62,2.15,14.72,1.09,19.95-4.54,2.56-2.75,2.27-8.34,1.61-12.56,6.28-1.35,12.16-3.25,17.39-7.7ZM743.27,583.3l-4,14.55c-2.52,9.18-12.98,13.44-22.27,13.65-14.03.32-25.64-7.4-33.49-18.71-5.95-8.68-8.75-18.59-9.66-29.35,0-.16-3.23-.9-3.26-.3l-.1,2.43c1.03,28.72,15.04,52.65,44.93,56.52,10.83,1.4,22.38-2.66,31.38-8.65,7.32-4.87,10.31-12.72,9.5-21.03-.68-7.06,2.82-14.04,10.41-16.5-3.33-2.91-8.68-3.94-13.23-2.8s-8.7,4.68-10.21,10.19Z"/>
      <path d="M116.91,424.64c-21.26-.44-37.78-18.1-38.13-37.95l-.61-35.34.45-33.41.32-38.58-.21-11c-.17-8.68.65-18.37,9.2-23.06,9.23-5.06,19.48-8.33,29.74-11.14l28.37-7.76c53.33-14.58,163.17-33.29,219.34-39.57l49.59-5.54,18.98-1.77,10.06-.91,10.04-.95,11.92-1.01,14.97-1.01,15.99-1.03,12.17-.87,17.86-.66,15.06-.66,12.14-.69,31.79-.35,6.05-1,80.32.5,23.71.81,28.93,1.14,12.03.56,14.94.77,16.01,1.1,34.02,2.14,11.01.8,10.08.95,11.19,1.07c91.07,8.73,181.31,22.81,270.65,44.05,19.04,4.53,36.73,9.79,54.9,16.25,10.34,3.68,18.17,11,18.13,23l-.38,121.63c-.07,21.18-16.41,38.82-37.75,39.15l-93.92,1.45-215.68.21h-11.5s-382.51-.02-382.51-.02l-62.17.22-31.21.02-185.64-.69-40.26-.84ZM596.17,375.14l7.78-14.86c13.04-35.88,13.48-89.04,1.28-125.04-3.52-10.39-8.83-19.9-17.72-26.28-12.06-8.66-27.63-5.08-36.99,6.03-21.43,25.44-23.09,75.01-19.68,108.4,2.14,20.87,8.9,50.12,25.46,61.46,13.49,9.24,32.36,4.63,39.87-9.72ZM659.12,303.38l6.72.13,23.71,81.65,28.51.33.17-8.92c-3.91-1.91-6.81-5.13-8.1-9.44l-20.96-70.06c19.84-11.92,23.21-44.69,17.48-66.03-3.71-13.79-15.24-23.74-29.65-23.86l-53.02-.41.05,10.23c2.82.52,5.77,1.16,7.39,2.38,1.42,1.07,2.78,4.65,2.78,7.12l-.05,140.68c0,5.91-4.47,9.33-10.12,9.07l.02,9.08,43.94.04.48-9.21c-14.14-.49-9.59-14.18-9.53-27.74l.19-45.04ZM781.15,385.33l.56-8.96c-3.67-.49-6.15-.92-7.86-2.24-1.37-1.06-2.76-4.45-2.76-6.91l-.02-143.05c8.03,2.72,18.82-.88,19.62,5.25l2.36,18.01,7.2-.24-.23-34.21-82.21-4.65v35.91s7.19.33,7.19.33l1.84-17.67c.18-1.72,3.07-3.6,4.9-3.57l14.7.2-.08,144.05c0,5.85-4.82,8.86-10.47,8.71l.41,9.16,44.84-.13ZM478.42,376.54c-4.32-.47-7.13-1.01-8.47-2.51-1.06-1.19-2.23-4.57-2.24-6.44l-.2-55.56,15.62-1.84c9.01-1.06,18.57-5.93,24.34-13.28,13.12-16.72,16.15-47.18,8.43-67.12-4.95-12.78-16.45-20.22-29.97-18.87l-53.75,5.37.08,10.19c3.19-.14,6.17-.03,7.6,1.15,1.25,1.02,2.77,3.95,2.77,6.11l-.02,134.46c0,5.98-4.35,9.1-10.34,9.45l-.12,8.67,6.73-.94,39.97-.05c.6-2.83.58-7.41-.44-8.78ZM860.03,369.49c.32,1.4-.33,5.17-1.64,5.67l-5.76,2.21c-1.79.68-1.2,5.78-.43,8.03l41.85.07c.35-2.77.44-6.41.15-8.53-4.79-1.18-6.88-3.77-7.83-7.83l-15.25-64.65-20.71-89.17-8.54-.25-35.74,156.35c-.64,2.79-4.32,4.32-6.45,5.93-1.49,1.18-1.21,5.94-.75,7.94l25.03.3-.28-8.53c-2.87-.85-5.76-1.7-6.72-3.19-1.14-1.76-.6-4.69-.18-6.79l5.78-28.78,30.53.26,6.96,30.97ZM316.1,387.29c17.31,2.32,34.2,7.25,48.31-12.53,15.24-21.37,11.97-57.61-8.98-76.82l-17.78-16.3c-11.98-10.98-16.84-28.55-8.34-42.74,3.26-5.45,9.97-8.21,15.12-6.71,5.53,1.61,10.05,4.98,11.52,11.18l3.47,14.62,6.88-2.27-.22-33.51-7.17,4.34c-20.13-8.34-42.09.06-50.54,20.48-6.07,14.67-6.23,31.5.9,46.04,4.94,10.08,13.3,17.22,21.41,24.56l11.61,10.52c9.07,9.6,11.6,23.04,9.25,35.94-1.08,5.93-3.51,11.03-8.44,14.46-5.75,2.95-11.82,3.08-18.3-.13-3.48-2.22-7.87-7.02-9.07-12.54l-3.11-14.36-7.06,1.42-.04,32.93,10.57,1.42ZM971.58,354.88l-2.74,15.52c-.26,1.49-3.42,3.9-4.91,3.84l-29.17-1.2-.09-127.33c0-2.21.99-6.15,2.69-6.63l7.77-2.19.03-7.38-44.74-5.91-.19,8.79c4.73-.31,10.02,3.55,10.02,9.05l-.02,127.13c0,5.51-5.02,8.35-10.32,7.74l.07,9.17,79.08.15.14-30.47-7.63-.28ZM1022.74,376.53l-.28-17.2.2-44.81c7.03-.26,13.89-.51,20.11,2.31,2.82,1.28,3.2,7.32,3.16,10.5l6.97.21.05-29.43-5.95-.18c-1.43-.04.07,10.38-6.9,9.56l-17.8-2.08-.07-35.99.15-17.32c10.1.4,20.36,2.51,30.27,6.5l2.74,14.48,7.14.98-.38-24.18-73.63-13.4c-.63,3.42-.81,5.71-.64,8.72,3.47.12,9.71,2.78,9.75,6.37l.54,48.6.43,23.23-.51,27.99v19.27c.01,8.56-10.15,6.38-10.21,8.33l-.13,4.4c-.02.6.14,3.17.7,2.96l2.75-1.03,53.3.16c6.7,1.8,13.41.94,20.06.53l-.14-25.26h-6.83s-2.76,14.44-2.76,14.44c-.29,1.5-4.18,2.83-5.94,2.74l-26.16-1.41ZM251.27,389.93c22.28-2.04,32.29-20.26,37.15-41.43,6.43-28.02,5.83-57.7-3.04-85.16-3.44-10.65-10.35-20.63-20.73-24.45-14.15-5.21-29.32,1.49-38.41,12.68-7.26,8.94-11.44,18.77-14.09,30.11-7.13,30.61-6.56,78.17,15.53,99.58,6.17,5.98,15.27,9.43,23.59,8.67ZM1128.47,380.81c15.98-10.94,17.08-42.04.92-56.94l-23.36-21.53c-7.18-6.62-12.72-15.61-11.43-25.26.82-6.12,4.73-11.97,10.79-12.36,8.42-.55,16.76,4.78,19.28,12.79l3.65,11.59,6.19,1.06.21-25.5-6.54,1.52c-7.55-4.98-15.55-8.51-24.5-9.49-12.06-1.32-22.93,4.81-27.12,16.35-5.53,15.26-1.3,31.57,8.95,43.77,3.07,3.66,6.04,6.3,9.56,9.45l16.86,15.14c10.42,9.36,10.9,27.49,4,34.92-4.9,5.28-12,6.41-19.3,4.25-4.81-1.42-10.88-5.84-12.2-12.28l-2.28-11.07-7.84-.1.41,27.92,20.27,3.74c12.29,2.27,23.19-.93,33.5-7.99ZM196.91,386.37l.89-27.02-7.08.25-3.99,16.32c-2.07.65-4.92,1.62-6.73,1.62l-24.94-.02c-1.36,0-3.17-3.49-3.42-4.85l.02-97.23c1.54-6.03,3.65-9.59,10.46-10.02l-.51-7.44-44.47,10.67-.46,6.49,6.93-.21c1.51-.05,3.88,3.45,3.89,5.27l.08,33.18-.1,35-.11,23.72c-.03,5.59-4.14,8.8-10.02,8.73-.52,1.57-.72,4.48-.61,6.98l11.34-1.18h49.89s18.95-.25,18.95-.25Z"/>
      <path d="M125.01,474.26c-1.08-2.28-4.57-3.98-6.07-2.31l.03,13.92,4.79,5.27-19.68.17,4.51-4.95.2-36.49-4.28-4.26,25.42-.1c6.83-.03,11.32,4.68,11.91,10.38.67,6.48-2.89,12.02-10.04,13.46,4.37,5.04,7.13,10.4,9.88,16.38l5.37,5.4-13.85.34-8.18-17.23ZM127.58,450.19c-2.64-1.3-6.76-1.41-8.67-.51l.03,17.97c2.93.26,6.84-.05,9.1-1.5,3.88-2.49,4.36-13.59-.46-15.96Z"/>
      <path d="M850.92,482.07l7.53,6.63c.24.21,2.03.71,2.01.68-.01-.02-.04.92-.09,1.96l-13.02-.02-3.32-3.13c-6.99,5.27-16.37,5.46-23.34.53-5.44-3.85-6.72-11.06-2.81-16.79,2.02-2.95,6.1-5.36,9.3-7.36-2.65-3.72-4.82-8.82-2.96-12.95,2.89-6.43,10.48-8.21,16.9-6.23,2.59.8,5.28,2.65,6.05,4.45.94,2.18.99,6.64-.24,8.18-2.66,3.34-5,4.71-9.11,6.84l10.05,13.25c1.26-1.74,2.71-5.51,2-6.85s-2.28-2.8-4.69-5.56l16.16-.48c-.83,1.61-2.39,3-3.66,3.88l-6.76,12.97ZM839.99,449.88c-.53-1.03-3.49-2.55-4.43-2.04s-2.45,2.19-2.87,3.4c-1.2,3.46.6,7.28,3.31,9.92,4.18-1.89,6.25-6.89,3.99-11.28ZM841.36,484.97l-11.28-16.31c-5.1,3.34-5.91,9.21-2.82,13.88,2.66,4.02,9.07,5.78,14.1,2.43Z"/>
      <path d="M525.56,473.3c-.4-.82-.78-2.18-1.23-2.13l-3.53.39.21,15.58c1.38.99,2.99,2.22,4.04,3.93l-18.29.36c.05-2.08,1.25-3.22,4.12-3.96l-.23-37.1-4.87-4.51,25.19-.31c6.71-.08,11.76,4.4,12.49,10.51s-3.17,11.74-9.83,13.44l8.72,15.57,5.65,6.06-13.54.43-8.88-18.26ZM529.41,450.26c-2.15-1.01-5.73-1.31-8.53-1.21l-.02,18.59c3.12.06,6.85-.42,8.87-1.91,3.87-2.84,3.62-13.62-.32-15.48Z"/>
      <path d="M686.92,491.16c-1.18.1-3.98-.12-5.29-.43l-26.33-31.93-.15,27.07,5.19,5.24-15.16.29,5.24-5.33.08-35.69-5.58-4.62,12.78-.25,24.34,29.67-.19-25.91c-3.09-.87-4.46-2.05-4.38-3.85l14.69.34-5.18,4.91-.06,40.49Z"/>
      <path d="M476.66,445.69c-3.02,3.07-5.22,4.68-5.22,6.28l-.02,26.17c0,6.28-4.27,11.72-10.27,13.4-6.38,1.79-13.67.98-18.83-3.58-3.22-2.85-4.26-8.17-4.27-12.52l-.08-26.36c-2.28-.83-3.18-1.24-4.58-3.57l19.6.11-4.24,4.27-.12,28.44c-.02,5.44,3.17,9.26,7.88,9.6s9.54-2.93,9.6-8.9l.31-28.44-5.12-5.02,15.36.12Z"/>
      <path d="M198.91,469.72l-9.39-.59.32,18.4,11.94-.11,7.38-8.14-.13,12.18-34.48-.2,4.76-4.99.16-33.02c.02-3.31-1.74-4.46-5.18-7.59l33.49-.28-.43,10.88c-2.65-1.41-3.47-3.05-4.64-6.2l-13.19-1.31.33,16.83c3.07.53,7.52.57,8.79-1.1,1.34-1.76,2.37-3.23,3.77-3.92l.55,11.66c.03.6-2.16,1.84-2.4,1.29l-1.67-3.79Z"/>
      <path d="M1146.13,473.18c-3.77.17-2.5-6.4-13.23-3.94v18.32s10.96-.28,10.96-.28c3.47-.09,5.35-7.52,8.86-6.83l-.36,10.9-34.08-.1,4.84-5.25-.07-34.44c0-1.59-3.06-3.96-4.69-6l32.61-.14-.37,11.24-5.52-6.99-12.19-.75.03,16.7,9.15-.66c1.18-2.95,2.04-4.21,4.29-4.06l-.23,12.28Z"/>
      <path d="M269.97,485.98c-3.6,5.4-11,7-16.89,6.24l-11.94-1.53.78-12.91c4.8,5.78,5.51,10.22,12.19,11.06,3.06.38,6.85-1.61,7.84-4.12,1.3-3.31.2-7.4-2.95-9.31l-10.68-6.47c-3.52-2.13-6.52-5.81-6.87-9.29-.46-4.6.82-9.33,4.76-12.01,9.25-6.28,15.47-.99,23.05-1.92l.49,9.94-2.27,1.03c-2.12.96-1.16-6.25-7.52-8.46-3.18-1.1-6.56.12-8.45,2.29-1.72,1.97-1.81,7.08.64,8.51l12.19,7.15c6.65,3.9,10.54,12.44,5.63,19.79Z"/>
      <path d="M1011.15,478.33h-14.29c-.93,2.6-2.12,6.64-2.07,8.32l3.86,4.75-14.74-.26,5.16-4.94,15.04-39.94,4.84-1.49,16.11,43.16c2,.23,3.53,1.24,3.41,3.36l-18.69.05c.13-1.84,1.28-2.98,3.46-4.35l-2.08-8.67ZM1009.43,474.61l-5.79-15.18-5.46,14.8,11.25.38Z"/>
      <path d="M599.95,478.43l-14.25-.08-2.91,8.38,4.58,4.27-14.7.18,5.04-4.36,15.35-41.1,4.09-.67c1.01-.17,1.68,2.82,2.06,3.81l14.64,38.47,2.75,1.18c.53.23.28,2.02.05,2.83h-17.9c.65-1.67,1.45-2.8,2.74-4.71,1.13-1.67-.52-5.83-1.55-8.19ZM598.38,474.33l-5.91-15.49-5.6,15.66,11.51-.18Z"/>
      <path d="M389.33,478.39l-14.56-.02-2.99,8.52c2.66,1.92,3.18,2.27,4.67,4.45l-14.01-.06,4.53-4.11,15.34-41.5,4.61-.82,16.05,42.5c2.08.41,3.56,2.26,2.93,3.99l-18.52-.11,3.8-4.64-1.85-8.19ZM387.38,474.29l-5.72-14.86-5.61,15.21,11.33-.35Z"/>
      <path d="M933.69,480.99c2.59,6.09,9.87,9.39,14.99,6.14l8-5.07-.37,6.69c-11.71,5.65-26.51,4.57-32.72-5.86s-5.13-23.3,2.75-32.14c5.3-5.94,13.68-7.12,21.23-5.47,2.93.64,5.31.71,8.77.33l.04,11.11-2.63.1c-1.44.05-1.63-8.44-10.29-8.69-12.07-.35-15.17,20.21-9.77,32.88Z"/>
      <path d="M1083.6,473.78c-.26,1.02-3.37-1.38-3.54-2.81-2.18-1.09-5.91-1.19-9.39-.88l.25,17.59c2.76.05,4.31.92,4.45,3.55l-19.41.05c2.27-2.73,2.77-3.14,4.72-4.97l-.11-36.81c-2.55-1.25-3.55-1.95-4.18-3.95l32.08-.09-.18,9.97c-3.55,1.04-3.52-6.15-8.06-6.23l-9.5-.16-.14,16.82c10.23,3.24,9.31-3.37,13.54-4.21l-.54,12.13Z"/>
      <path d="M731,491.38c-.68,0-1.89-2.46-1.4-2.04,2.11-.79,4.04-2.78,4.03-4.83l-.12-34.42c-3.4-2.66-8.53-.07-9.84,4.04l-.61,1.92c-.19.6-2.52.41-2.97.2l.43-10.77h35.92c.13,3.67.09,7.48-.65,11.74-4.03-6.16-5.86-9.4-12.3-7.84l.16,37.81c2.73.69,4.38,2,4.3,4.13l-16.95.08Z"/>
      <path d="M329.28,491.4l-18.5-.06c-.13-1.69,1.42-3.19,3.78-4.23l.24-37.65c-10.67-2.57-8.8,8.38-13.4,6.57l.19-10.54h36.38s-.22,11.98-.22,11.98l-5.06-6.92c-1.1-1.51-5.58-1.64-7.77-.99v37.4s3.55,1.59,3.55,1.59c.75.34.86,1.74.82,2.85Z"/>
      <path d="M681.8,276.49c-2.66,11.42-11.47,18-22.67,16.29l-.38-20.34.04-13.11-.02-40.77c3.77-.41,9.87-.93,14.59,1.53,12.96,6.76,12.56,38.71,8.44,56.4Z"/>
      <path d="M584.8,351.31c-.72,9.88-4.75,26.85-12.26,27.29-16.78.97-16.52-59.72-16.53-80.22,0-20.5-.47-83.73,15.4-83.19,3.82.13,6.72,1.83,8.08,5.71,2.75,7.85,5.09,15.83,5.62,24.28l2.39,37.66v31.1s-2.71,37.38-2.71,37.38Z"/>
      <path d="M490.69,233.82c7.77,21.17,4.49,63.21-11.56,65.51l-11.68,1.67v-74.6s-.49-2.6-.49-2.6c0-.01,17.73-6.35,23.73,10.01Z"/>
      <path d="M264.65,352.19c-1.05,12.09-4.65,29.18-14.15,28.98-3.18-.06-7.22-2.29-8.58-5.69-3-7.48-4.84-14.93-5.71-23.21-2.87-27.19-2.99-54.22.33-81.28,1.35-11.01,5.15-24.7,13.86-24.71,4.14,0,7.35,2.68,8.9,6.91,3.85,10.49,5.37,21.47,6.05,32.91,1.31,22.16,1.23,43.94-.69,66.09Z"/>
      <polygon points="850.69 328.18 825.21 327.9 838.1 270.83 850.69 328.18"/>
    </g>
  </g>
</svg>