<?xml version="1.0" encoding="UTF-8"?>
<svg id="Capa_2" data-name="Capa 2" xmlns="http://www.w3.org/2000/svg" xmlns:xlink="http://www.w3.org/1999/xlink" viewBox="0 0 205.42 171.9">
  <defs>
    <style>
      .cls-1 {
        fill: url(#Degradado_sin_nombre_9-4);
        stroke: url(#Degradado_sin_nombre_267-4);
      }

      .cls-1, .cls-2, .cls-3, .cls-4 {
        stroke-miterlimit: 10;
        stroke-width: .5px;
      }

      .cls-2 {
        fill: url(#Degradado_sin_nombre_9);
        stroke: url(#Degradado_sin_nombre_267);
      }

      .cls-5 {
        fill: #e73a1e;
      }

      .cls-3 {
        fill: url(#Degradado_sin_nombre_9-3);
        stroke: url(#Degradado_sin_nombre_267-3);
      }

      .cls-4 {
        fill: url(#Degradado_sin_nombre_9-2);
        stroke: url(#Degradado_sin_nombre_267-2);
      }
    </style>
    <linearGradient id="Degradado_sin_nombre_9" data-name="Degradado sin nombre 9" x1="-5.42" y1="102.53" x2="227.03" y2="91.22" gradientUnits="userSpaceOnUse">
      <stop offset="0" stop-color="#482278"/>
      <stop offset="1" stop-color="#1368b1"/>
    </linearGradient>
    <linearGradient id="Degradado_sin_nombre_267" data-name="Degradado sin nombre 267" x1="102.58" y1="95.3" x2="183.57" y2="95.3" gradientUnits="userSpaceOnUse">
      <stop offset="0" stop-color="#482278"/>
      <stop offset=".04" stop-color="#262b60"/>
      <stop offset=".97" stop-color="#5ac3e6"/>
      <stop offset="1" stop-color="#1368b1"/>
    </linearGradient>
    <linearGradient id="Degradado_sin_nombre_9-2" data-name="Degradado sin nombre 9" x1="-7.49" y1="60.07" x2="224.97" y2="48.75" xlink:href="#Degradado_sin_nombre_9"/>
    <linearGradient id="Degradado_sin_nombre_267-2" data-name="Degradado sin nombre 267" x1="61.17" y1="55.12" x2="128.84" y2="55.12" xlink:href="#Degradado_sin_nombre_267"/>
    <linearGradient id="Degradado_sin_nombre_9-3" data-name="Degradado sin nombre 9" x1="-5.14" y1="108.37" x2="227.32" y2="97.06" xlink:href="#Degradado_sin_nombre_9"/>
    <linearGradient id="Degradado_sin_nombre_267-3" data-name="Degradado sin nombre 267" x1="19.85" y1="105.22" x2="114.98" y2="105.22" xlink:href="#Degradado_sin_nombre_267"/>
    <linearGradient id="Degradado_sin_nombre_9-4" data-name="Degradado sin nombre 9" x1="-5.9" y1="92.8" x2="226.56" y2="81.49" xlink:href="#Degradado_sin_nombre_9"/>
    <linearGradient id="Degradado_sin_nombre_267-4" data-name="Degradado sin nombre 267" x1="0" y1="85.95" x2="205.42" y2="85.95" xlink:href="#Degradado_sin_nombre_267"/>
  </defs>
  <g id="Capa_1-2" data-name="Capa 1">
    <g>
      <path class="cls-2" d="M183.22,92.42c-1.43-20.39-18.58-36.79-39.04-37.33-.36,0-.72-.01-1.08-.01-20.08,0-37.2,14.99-39.86,34.88-.06.27-.08.53-.1.75v.03c-.01.06-.02.12-.03.18l-.25,2.22h.55c.81,2.37,3.05,4.08,5.7,4.08s4.89-1.71,5.7-4.09h.05l.06-.36c.1-.38.17-.78.2-1.19l.03-.17c1.93-13.87,13.94-24.33,27.95-24.33.52,0,1.05.01,1.58.04,14.01.77,25.69,12.33,26.59,26.33.51,7.89-2.19,15.4-7.58,21.15-5.33,5.68-12.83,8.94-20.59,8.94-5.23,0-10.36-1.47-14.83-4.25l-2.06-1.28-.08.2c-.57-.18-1.17-.27-1.79-.27-.32,0-.64.03-.96.08-2.56.4-4.61,2.47-4.98,5.03-.4,2.73,1.06,5.34,3.58,6.42,6.38,3.97,13.68,6.07,21.13,6.07,11.1,0,21.83-4.67,29.42-12.82,7.7-8.26,11.5-19.02,10.71-30.3Z"/>
      <path class="cls-4" d="M92.13,89l2.01.2.07-.86c2.13-.94,3.55-3.05,3.55-5.48,0-3.11-2.41-5.71-5.51-5.97-11.7-1.73-19.92-12.29-18.73-24.07,1.05-10.4,9.71-18.88,20.15-19.72.61-.05,1.22-.07,1.82-.07,9.89,0,18.64,6.68,21.27,16.25l.44,1.6.22-.02c1.06,1.79,3,2.94,5.16,2.94.08,0,.16,0,.25,0,.99-.04,1.99-.42,2.87-1.09,2.27-1.73,3.17-3.59,2.82-5.83v-.11l-.06-.2c-.05-.21-.1-.4-.15-.53v-.02c-4.09-14.71-17.58-24.98-32.82-24.98-.58,0-1.17.01-1.75.04-16.83.85-30.67,14.13-32.19,30.89-1.68,18.6,12.03,35.22,30.57,37.05Z"/>
      <path class="cls-3" d="M109.04,104.42c-.11,0-.22,0-.32,0-2.94,0-5.43,2.11-5.92,5.02-.72,4.11-2.13,8.03-4.21,11.63-5.52,9.56-15.02,15.94-26.06,17.5-1.6.23-3.23.34-4.86.34-4.72,0-9.5-.98-13.82-2.84-11.49-4.94-19.48-15.27-21.36-27.63-.95-6.25-.2-12.63,2.18-18.45,3.32-8.12,9.44-14.71,17.23-18.55l1.73-.85-.12-.27c1.38-1.34,2.06-3.28,1.74-5.28-.32-1.98-1.68-3.71-3.56-4.53-.77-.34-1.57-.51-2.38-.51h0c-.14,0-.29,0-.43.02l-.2-.36-1.68.81h-.01c-.34.15-.65.31-.95.5-8.21,4.18-14.97,10.57-19.54,18.48-6.36,11.02-8.05,23.85-4.76,36.13,3.29,12.29,11.17,22.56,22.19,28.92,7.25,4.19,15.46,6.4,23.74,6.4,4.16,0,8.33-.55,12.4-1.64,12.29-3.29,22.55-11.17,28.91-22.19,2.72-4.7,4.59-9.83,5.58-15.23.54-2.21-.14-4.09-2.12-5.93-.96-.89-2.16-1.41-3.39-1.48Z"/>
    </g>
    <path class="cls-5" d="M176.39,152.57c-5.47,0-9.92-4.45-9.92-9.92s4.45-9.92,9.92-9.92,9.92,4.45,9.92,9.92-4.45,9.92-9.92,9.92Z"/>
    <path class="cls-1" d="M96.32,10.25c8.85,0,17.67,2.59,25.13,7.64,8.56,5.79,14.97,14.5,17.9,24.41l.28.55.32,1.73c1.42-.12,2.85-.19,4.3-.19,28.08,0,50.93,22.85,50.93,50.93,0,10.45-3.17,20.17-8.6,28.26,5.84,4.32,9.4,11.55,8.44,19.55-1.15,9.57-8.86,17.27-18.43,18.38-.85.1-1.69.15-2.53.15-9.97,0-18.33-6.95-20.53-16.26-3.01.56-6.11.85-9.28.85-9.22,0-18.27-2.54-26.21-7.34-.78-.39-1.52-.84-2.22-1.33-3.01,4.16-7,8.33-11.06,11.53-10.32,8.15-23.28,12.52-36.33,12.52-3.76,0-7.53-.36-11.25-1.11-6.23-1.24-12.25-3.53-17.75-6.71-13.5-7.79-23.15-20.38-27.18-35.43-4.2-15.68-1.75-33.37,7.48-46.86,2.31-3.38,4.92-6.72,7.84-9.65.6-.6,1.21-1.18,1.83-1.75,3.77-3.4,7.91-5.94,12.26-8.5.53-.31,1.07-.59,1.64-.85,0,0,9.3-4.65,9.3-4.65.45-.22,1.07-4.23,1.29-4.93.57-1.75,1.25-3.46,2.03-5.13,1.56-3.33,3.53-6.46,5.85-9.32,4.69-5.77,10.79-10.34,17.66-13.18,5.39-2.23,11.15-3.33,16.9-3.33M96.32.25v10V.25h0c-7.2,0-14.17,1.38-20.73,4.09-8.38,3.47-15.85,9.04-21.6,16.12-2.84,3.49-5.24,7.32-7.14,11.37-.96,2.04-1.8,4.15-2.49,6.28-.12.36-.21.72-.3,1.1l-5.09,2.54c-.81.37-1.62.8-2.4,1.25-4.78,2.81-9.44,5.67-13.89,9.69-.74.67-1.49,1.38-2.22,2.11-3.11,3.12-6.06,6.74-9.01,11.06C.83,81.43-2.49,102.03,2.58,120.97c4.72,17.63,16.03,32.37,31.84,41.5,6.49,3.75,13.48,6.39,20.79,7.85,4.32.86,8.76,1.3,13.2,1.3,15.44,0,30.54-5.21,42.52-14.67,2.5-1.97,4.95-4.22,7.22-6.63,8.14,3.88,17.05,5.92,26.07,5.92.97,0,1.94-.02,2.91-.07,5.44,9.42,15.55,15.48,26.9,15.48,1.22,0,2.46-.07,3.69-.22,14.08-1.64,25.52-13.05,27.2-27.13.96-8.01-1.26-15.99-5.95-22.31,4.06-8.28,6.17-17.37,6.17-26.69,0-32.6-25.74-59.31-57.97-60.86-4.07-10.03-11.08-18.73-20.14-24.86C118.01,3.48,107.38.25,96.32.25h0Z"/>
  </g>
</svg>