<?xml version="1.0" encoding="UTF-8"?>
<svg id="Capa_2" data-name="Capa 2" xmlns="http://www.w3.org/2000/svg" xmlns:xlink="http://www.w3.org/1999/xlink" viewBox="0 0 766.33 112.82">
  <defs>
    <style>
      .cls-1 {
        fill: url(#Degradado_sin_nombre_1229-2);
      }

      .cls-2 {
        fill: #e63a21;
      }

      .cls-3 {
        fill: #e73a1e;
      }

      .cls-4 {
        fill: url(#Degradado_sin_nombre_1229);
      }

      .cls-5 {
        fill: url(#Degradado_sin_nombre_1229-3);
      }
    </style>
    <linearGradient id="Degradado_sin_nombre_1229" data-name="Degradado sin nombre 1229" x1="-20.84" y1="36.64" x2="380.94" y2="36.64" gradientUnits="userSpaceOnUse">
      <stop offset="0" stop-color="#482278"/>
      <stop offset="1" stop-color="#1368b1"/>
    </linearGradient>
    <linearGradient id="Degradado_sin_nombre_1229-2" data-name="Degradado sin nombre 1229" y1="40.08" x2="380.94" y2="40.08" xlink:href="#Degradado_sin_nombre_1229"/>
    <linearGradient id="Degradado_sin_nombre_1229-3" data-name="Degradado sin nombre 1229" x1="-20.84" y1="68.98" x2="380.94" y2="68.98" xlink:href="#Degradado_sin_nombre_1229"/>
  </defs>
  <g id="Capa_1-2" data-name="Capa 1">
    <path class="cls-4" d="M53.49,41.01c-2.03-3.01-5.17-5.51-9.36-7.44h0c-2.84-1.3-7.87-2.75-15.36-4.45-8.78-1.98-11.9-3.56-12.98-4.54-1.47-1.31-2.18-2.95-2.18-5,0-2.4,1.05-4.41,3.22-6.14,2.23-1.79,5.95-2.7,11.06-2.7s8.58,1,10.99,2.99c1.71,1.41,2.89,3.25,3.6,5.65.77,2.59,3.32,4.35,5.98,4.14,1.78-.14,3.38-1.05,4.41-2.52.97-1.39,1.28-3.1.83-4.7-.6-2.14-1.52-4.17-2.75-6.04-2.22-3.38-5.42-5.98-9.53-7.71-4.01-1.69-8.69-2.55-13.92-2.55-4.75,0-9.14.82-13.04,2.43-4,1.65-7.09,4.12-9.19,7.34-2.1,3.2-3.16,6.71-3.16,10.41,0,3.39.88,6.5,2.61,9.23,1.72,2.72,4.35,5.02,7.81,6.83,2.63,1.4,7.05,2.83,13.49,4.38,6.19,1.49,10.22,2.59,11.97,3.27,2.59.99,4.46,2.19,5.53,3.57,1.05,1.36,1.57,2.92,1.57,4.75s-.54,3.46-1.66,5.02c-1.12,1.55-2.89,2.8-5.25,3.72-2.45.95-5.35,1.44-8.61,1.44-3.67,0-7.01-.64-9.91-1.91-2.84-1.23-4.94-2.84-6.26-4.8-.83-1.23-1.48-2.7-1.93-4.37-.75-2.74-3.36-4.59-6.1-4.29-1.7.15-3.25,1.03-4.26,2.41-.96,1.32-1.31,2.96-.96,4.52.64,2.82,1.76,5.48,3.35,7.88,2.51,3.83,6.02,6.74,10.43,8.63,4.32,1.86,9.73,2.81,16.06,2.81,5.05,0,9.66-.94,13.72-2.8,4.12-1.89,7.33-4.58,9.54-8,2.22-3.43,3.34-7.13,3.34-11.01s-1.04-7.44-3.08-10.47Z"/>
    <g>
      <path class="cls-2" d="M71.77,27.4c.13.45.37.87.71,1.29s.78.68,1.29.81c.45.32.84.5,1.19.52.35.03.77.02,1.29-.04.57.13,1.11.06,1.62-.19.51-.26,1.01-.45,1.52-.57.45-.32.84-.65,1.19-1,.35-.34.58-.77.71-1.29,0-.19.03-.36.09-.52.07-.16.13-.3.19-.43.13-.83-.08-1.81-.62-2.95s-1.35-1.84-2.43-2.1c-.82-.06-1.56-.03-2.19.1s-1.3.28-2,.47c-.19.07-.32.13-.38.19-.07.07-.16.1-.28.1-.38.32-.73.62-1.05.9-.32.28-.54.59-.67.9-.32.44-.47.89-.47,1.33.06.38.09.78.09,1.19s.07.84.19,1.29Z"/>
      <path class="cls-2" d="M312.44,27.4c.13.45.37.87.71,1.29s.78.68,1.29.81c.45.32.84.5,1.19.52.35.03.77.02,1.29-.04.57.13,1.11.06,1.62-.19.51-.26,1.01-.45,1.52-.57.45-.32.84-.65,1.19-1,.35-.34.58-.77.71-1.29,0-.19.03-.36.09-.52.07-.16.13-.3.19-.43.13-.83-.08-1.81-.62-2.95s-1.35-1.84-2.43-2.1c-.82-.06-1.56-.03-2.19.1s-1.3.28-2,.47c-.19.07-.32.13-.38.19-.07.07-.16.1-.28.1-.38.32-.73.62-1.05.9-.32.28-.54.59-.67.9-.32.44-.47.89-.47,1.33.06.38.09.78.09,1.19s.07.84.19,1.29Z"/>
      <path class="cls-1" d="M160.04,67.17c1.99,2.57,5.98,2.24,9.01,1.08,4.99-1.91,9.34-5.44,12.25-9.91-.24,4.18.37,9.1,3.97,11.23,4.02,2.37,9.05-.2,12.97-2.72,1.81,3.76,6.46,5.52,10.61,5.04,4.15-.47,7.88-2.74,11.22-5.25,1.55,4.73,7.9,6.32,12.53,4.51,4.63-1.82,7.88-5.94,10.91-9.89-.04,2.57.3,5.3,1.9,7.31,2.56,3.2,7.58,3.41,11.25,1.59,7.55-3.75,12.71-13.33,16.61-20.39,1.74-3.15,3.34-6.45,5.78-9.11,2.43-2.66,5.92-4.64,9.51-4.26-6.27,7.66-14,19.67-14.38,29.93-.1,2.62.93,5.44,3.18,6.78,1.91,1.13,4.32,1.01,6.45.4,5.63-1.62,8.86-6.35,13.71-9.01-.06,3.13,1.75,6.01,4.86,6.95,3.09.94,6.45.02,9.41-1.29,5.96-2.66,11.15-6.98,14.83-12.37-2.92,4.28,4.63,12.96,8.65,13.26,2.15.16,4.27-.47,6.27-1.28,5.51-2.24,10.62-5.95,14.29-10.65,1.07-1.37,5.75-9.75,5.31-13.66-.12-1.11-.66-1.86-1.81-1.99-.74-.08-1.45.27-2.08.67-3.23,2.1-4.34,5.95-6.49,8.97-2.55,3.59-5.84,6.66-9.61,8.95-.98.59-2.12,1.15-3.23.86-7.94-2.12-1.29-15.51,1.92-19.12,2.81-3.18,17.37-13.47,13.94-18.74-2.44-3.75-7.29.79-9.08,2.89-3.19,3.76-6.38,7.46-9.64,11.18.64-.73,1.03-8.66,1.01-10.07-.03-3.19-5.12-9.66-7.22-4.2-.42,1.1-.4,2.31-.42,3.49-.21,13.66-6.88,27.41-19.26,33.93-.54.28-1.21.55-1.72.22-.68-.44-.45-1.47-.14-2.21,2.97-6.99,7.31-13.42,9.36-20.73.82-2.91.7-6.94-2.17-7.89-1.52-.5-3.22.2-4.36,1.32-1.14,1.12-1.84,2.6-2.55,4.03-3.76,7.58-8.49,14.68-14.03,21.08-1.91,2.2-3.95,4.35-6.5,5.76-1.12.62-2.87.88-3.38-.29-.21-.48-.1-1.03.03-1.53,2.47-9.83,10.39-17.36,14.28-26.73.67-1.61,1.22-3.34,1.04-5.08-.19-1.74-1.29-3.48-2.98-3.93-.99-.26-2.05-.06-3.05.16-3.79.83-7.52,1.92-11.16,3.26,1.61-2.38.07-5.94-2.54-7.14-2.61-1.2-5.76-.51-8.26.92-2.76,1.57-5.55,4.53-5.63,7.88-.08,3.12,2.4,7.16,5.9,6.79-3.84,7.68-8.32,15.05-13.36,22.01-.82,1.14-1.72,2.31-3.01,2.88s-3.07.26-3.67-1.01c-.33-.69-.26-1.49-.15-2.25,1.39-10.03,7.03-18.89,10.76-28.3.79-1.99,1.31-4.67-.42-5.92-2.03-1.46-4.68.64-6.28,2.56-4.17-3.08-10.27-2.18-14.57.73-12.36,8.38-14.99,26-28.32,33.64-1.02.59-2.32,1.1-3.34.51-1.51-.87-1.05-3.14-.38-4.76,5.77-14.07,11.55-28.13,17.32-42.2.72-1.76,1.46-3.6,1.35-5.5s-1.32-3.89-3.19-4.23c-2.68-.49-4.69,2.35-5.85,4.82-7.72,16.44-11.78,35.03-23.51,48.9-.68.81-1.43,1.63-2.42,2-.99.37-2.29.15-2.81-.77-.36-.63-.28-1.42-.18-2.14,1.13-8.01,3.76-15.81,7.7-22.88.94-1.68,1.97-3.37,2.25-5.28.28-1.9-.42-4.11-2.15-4.94-1.61-.78-3.61-.13-4.92,1.08-1.32,1.21-2.1,2.87-2.86,4.48-4.94,10.44-10.81,21.07-20.48,27.39-1.13-1.32-.43-3.32.32-4.89,3.07-6.44,6.14-12.88,9.21-19.32.81-1.71,1.65-3.5,1.57-5.39-.07-1.89-1.37-3.88-3.26-4.03-2.1-.18-3.67,1.81-4.77,3.6-5.84,9.56-10.07,20.09-12.46,31.04-.53,2.45-.9,5.26.63,7.23ZM272.72,29.97c.26-.64.37-.95.33-.95s.15-.19.52-.57c.45-.63.78-.87,1-.71s.43.27.62.33c.32.07.33.5.04,1.29-.28.8-.65,1.63-1.1,2.52h-.71c-.28,0-.52-.06-.71-.19-.19-.13-.3-.32-.33-.57-.03-.25.08-.63.33-1.14ZM230.72,56.4c.51-1.75,1.3-3.35,2.38-4.81.26-.38.46-.7.62-.95.16-.25.3-.49.43-.71.13-.22.26-.46.38-.71.13-.25.35-.6.67-1.05,1.08-1.59,2.25-3.25,3.52-5,1.27-1.74,2.48-3.19,3.62-4.33.57-.76,1.02-1.29,1.34-1.57.32-.29.8-.65,1.43-1.1.19-.26.26-.38.19-.38-.06,0,.13-.03.57-.1.13-.06.29-.22.48-.47.19-.25.34-.38.47-.38.25-.13.47-.24.66-.33.19-.1.38-.21.57-.33.26-.07.47-.19.66-.38.26-.13.35-.14.29-.05-.07.1.03.08.28-.05h.1c.06,0,.13-.03.19-.09.38-.13.66.11.86.71s.35,1.22.47,1.86l-.47,1.33c.13.26.03.53-.28.81-.32.28-.54.62-.67,1-.06.32-.21.57-.43.76-.22.19-.34.48-.34.86-.13.19-.19.3-.19.33s-.03.17-.09.43c-.76,1.85-1.81,3.62-3.14,5.34-.89,1.46-1.7,2.75-2.43,3.86-.73,1.11-1.54,2.21-2.43,3.29-.57.83-1.13,1.49-1.67,2s-1.13,1.14-1.76,1.91c-2.16,2.47-3.78,3.79-4.86,3.95-1.08.16-1.71-.3-1.9-1.38-.19-1.08-.03-2.49.47-4.23Z"/>
      <path class="cls-2" d="M372.64,49.76c-4.56,0-8.21,3.55-8.21,8.62s3.65,8.62,8.21,8.62,8.22-3.45,8.22-8.62-3.65-8.62-8.22-8.62Z"/>
      <path class="cls-5" d="M360.96,70.39c-.47.56-48.62,55.42-114.57,24.7-52.72-24.56-85.8-23.06-99.73-20.5,3.12-12.66,7.81-24.89,12.1-37.19.81-2.33,1.86-5.71-.26-7.7-.82-.77-2-1.14-3.11-.97-1.41.21-2.6,1.23-3.36,2.44-.76,1.21-1.15,2.6-1.54,3.98-.17-2.34-1.75-4.62-3.65-5.96-2.24-1.59-5.19-1.38-7.71-.51-4.15,1.44-7.56,4.51-10.24,7.99-2.69,3.47-4.74,7.38-7.01,11.14-2.11,3.51-4.43,6.92-7.15,9.99-.95,1.07-7.49,8.62-8.22,4.74-.13-.68.08-1.36.28-2.02,1.29-4.07,2.74-8.24,4.64-12.07,1.99-4.03,4.54-7.78,6.19-11.97.7-1.78,1.25-3.72.88-5.61-.8-4.09-5.27-5.88-9.02-4.98-5.57,1.35-9.71,7.18-13.27,11.27.88-1.01,1.42-4.38,1.85-5.73.5-1.6,1-3.17-.03-4.74-1.49-2.28-5.21-1.87-7.13.06-1.92,1.94-2.55,4.76-3.21,7.41-1.44,5.76-3.44,11.43-6.6,16.46-3.15,5.03-7.52,9.41-12.89,11.94-.41.19-.9.37-1.29.16-.53-.29-.52-1.05-.41-1.64.95-5.07,3.8-9.45,6.16-13.94,1.86-3.52,5.58-10.1,3.02-14.08-.63-.98-1.75-1.63-2.92-1.69-4.62-.23-6.78,7.21-8.35,10.41-1.72,3.5-3.3,7.08-4.55,10.78-1.52,4.49-4.63,12.76-1.31,17,1.43,1.83,3.97,2.46,6.29,2.31,4.82-.31,8.64-3.3,12.53-5.83-.1,1.51.33,3.08,1.35,4.2,1.02,1.12,2.64,1.71,4.1,1.32,2.37-.63,3.45-3.29,4.25-5.6,4.16-11.93,10.4-23.87,21.07-30.62.16,2.11-1.15,4.01-2.3,5.79-3.73,5.8-6.31,12.34-7.52,19.13-.57,3.21-.71,6.92,1.5,9.32,5.35,5.8,14.89-.67,18.77-5.08.34,3.23,3.13,5.9,6.3,6.6,3.17.71,6.56-.33,9.18-2.26,2.12-1.57,3.98-3.78,6.58-4.24-.94,3.33-1.96,6.63-3.06,9.9-.23.7-.5,1.43-1.06,1.9-.52.44-1.23.57-1.9.7-8.21,1.49-16.63,1.9-24.63,4.42-7.2,2.27-15.54,7.32-16.57,15.53-1.24,9.84,7.82,15.41,16.8,14.43,14.51-1.58,24.69-14.05,31.55-25.75.35-.6.75-1.17,1.23-1.66,5.26-1.64,38.54-9.95,99.83,18.6,15.66,7.3,30.38,10.15,43.85,10.15,48.17,0,80.2-36.51,80.6-36.99,1.5-1.75,1.3-4.4-.45-5.9-1.76-1.5-4.4-1.3-5.9.45ZM130.34,88.45c-.45.57-.92,1.16-1.43,1.76-.51.6-.99,1.25-1.43,1.95-.7.89-1.42,1.63-2.15,2.24s-1.48,1.25-2.23,1.95c-.32.19-.59.37-.81.53-.22.15-.4.3-.52.43-.32.13-.65.33-1,.62-.34.28-.71.49-1.1.62-.44.19-.82.43-1.14.71-.32.29-.67.5-1.05.62l-2.57,1.34c-.13,0-.34.04-.62.14-.28.09-.6.21-.95.33s-.66.26-.95.38c-.28.13-.46.22-.52.28-.82.19-1.59.35-2.28.48-.7.13-1.43.13-2.19,0-.82,0-1.84-.26-3.05-.76-.95-.26-1.62-1.05-2-2.38-.38-1.27-.26-2.35.38-3.24.13-.32.27-.56.43-.71l.52-.52,1.24-1.34.86-.76.66-.47c.64-.26,1.54-.7,2.71-1.34,1.18-.64,2.11-1.05,2.81-1.24.82-.32,1.65-.6,2.47-.86.83-.26,1.65-.45,2.48-.57l2.09-.57c.7-.19,1.4-.35,2.1-.48l3.71-.66,2.1-.47c.51-.13,1.2-.22,2.09-.29.89-.06,1.53-.16,1.91-.28.19,0,.39-.05.62-.14.22-.1.4-.08.52.04l-1.71,2.67ZM139.3,55.02c-.64.64-1.51,1.57-2.62,2.81s-2.27,2.32-3.48,3.24c-1.2.92-2.3,1.46-3.29,1.62s-1.67-.49-2.05-1.95c0-.89.16-2.03.48-3.43.32-1.4.66-2.6,1.05-3.62.32-.76.56-1.35.71-1.77.16-.41.32-.76.48-1.05.16-.28.3-.57.43-.86.13-.29.35-.65.67-1.1.51-1.08,1.14-2.33,1.9-3.77.76-1.43,1.74-2.68,2.95-3.76.63-.76,1.17-1.36,1.62-1.81s.86-.82,1.24-1.14c.38-.32.78-.57,1.19-.76.41-.19.93-.38,1.57-.57.38-.13.7-.13.95,0,.25.13.54.19.86.19.32.13.68.31,1.1.53s.68.71.81,1.48c.06.32.14.66.23,1.05.1.38.15.8.15,1.24,0,.64-.22,1.44-.67,2.43-.44.98-.73,1.69-.86,2.14-.51,1.01-.95,1.9-1.34,2.66s-.75,1.48-1.1,2.14c-.35.67-.76,1.32-1.24,1.96-.47.63-1.06,1.33-1.76,2.09Z"/>
    </g>
    <g>
      <g>
        <path class="cls-3" d="M401.49,54.65l12.88-33.55h4.78l13.73,33.55h-5.06l-3.91-10.16h-14.03l-3.68,10.16h-4.71ZM411.17,40.87h11.37l-3.5-9.29c-1.07-2.82-1.86-5.14-2.38-6.96-.43,2.15-1.03,4.29-1.81,6.41l-3.68,9.84Z"/>
        <path class="cls-3" d="M466.1,41.49v-3.94l14.21-.02v12.45c-2.18,1.74-4.43,3.05-6.75,3.92-2.32.88-4.7,1.32-7.14,1.32-3.3,0-6.29-.71-8.98-2.12-2.69-1.41-4.73-3.45-6.1-6.12s-2.06-5.65-2.06-8.95.68-6.31,2.05-9.14,3.33-4.93,5.89-6.3,5.52-2.06,8.86-2.06c2.43,0,4.62.39,6.58,1.18s3.5,1.88,4.61,3.28c1.11,1.4,1.96,3.23,2.54,5.49l-4,1.1c-.5-1.71-1.13-3.05-1.88-4.03-.75-.98-1.82-1.76-3.2-2.35-1.39-.59-2.93-.88-4.62-.88-2.03,0-3.78.31-5.26.93-1.48.62-2.67,1.43-3.58,2.44s-1.61,2.11-2.12,3.32c-.85,2.08-1.28,4.33-1.28,6.75,0,2.99.52,5.49,1.54,7.51s2.53,3.51,4.5,4.49c1.97.98,4.06,1.46,6.27,1.46,1.92,0,3.8-.37,5.63-1.11,1.83-.74,3.22-1.53,4.17-2.37v-6.25h-9.86Z"/>
        <path class="cls-3" d="M500.92,54.65V21.1h24.26v3.96h-19.82v10.28h18.56v3.94h-18.56v11.42h20.6v3.96h-25.04Z"/>
        <path class="cls-3" d="M546.01,54.65V21.1h4.55l17.62,26.34v-26.34h4.26v33.55h-4.55l-17.62-26.36v26.36h-4.26Z"/>
        <path class="cls-3" d="M617.8,42.89l4.44,1.12c-.93,3.65-2.6,6.43-5.02,8.34-2.42,1.92-5.37,2.87-8.87,2.87s-6.56-.74-8.82-2.21c-2.27-1.47-3.99-3.6-5.17-6.4-1.18-2.79-1.77-5.79-1.77-8.99,0-3.49.67-6.54,2-9.14,1.33-2.6,3.23-4.58,5.7-5.93,2.46-1.35,5.18-2.03,8.14-2.03,3.36,0,6.18.85,8.47,2.56,2.29,1.71,3.88,4.11,4.78,7.21l-4.37,1.03c-.78-2.44-1.91-4.22-3.39-5.33-1.48-1.11-3.34-1.67-5.58-1.67-2.58,0-4.73.62-6.47,1.85-1.73,1.24-2.95,2.9-3.65,4.98-.7,2.08-1.05,4.23-1.05,6.44,0,2.85.42,5.34,1.25,7.47s2.12,3.72,3.88,4.77c1.75,1.05,3.65,1.58,5.7,1.58,2.49,0,4.59-.72,6.32-2.15,1.72-1.43,2.89-3.56,3.5-6.38Z"/>
        <path class="cls-3" d="M642.43,54.65V21.1h4.44v33.55h-4.44Z"/>
        <path class="cls-3" d="M664.98,54.65l12.88-33.55h4.78l13.73,33.55h-5.06l-3.91-10.16h-14.03l-3.68,10.16h-4.71ZM674.66,40.87h11.37l-3.5-9.29c-1.07-2.82-1.86-5.14-2.38-6.96-.43,2.15-1.03,4.29-1.81,6.41l-3.68,9.84Z"/>
      </g>
      <g>
        <path class="cls-3" d="M705.74,51.09c0-.97.65-1.65,1.57-1.65s1.54.68,1.54,1.65-.6,1.65-1.57,1.65c-.92,0-1.54-.71-1.54-1.65Z"/>
        <path class="cls-3" d="M724.1,51.87c-.84.42-2.51.84-4.66.84-4.97,0-8.71-3.14-8.71-8.92s3.74-9.26,9.21-9.26c2.2,0,3.58.47,4.18.78l-.55,1.86c-.86-.42-2.09-.73-3.56-.73-4.13,0-6.88,2.64-6.88,7.27,0,4.32,2.48,7.09,6.77,7.09,1.39,0,2.8-.29,3.71-.73l.47,1.8Z"/>
        <path class="cls-3" d="M741.46,43.45c0,6.07-3.69,9.29-8.19,9.29s-7.92-3.61-7.92-8.95c0-5.6,3.48-9.26,8.19-9.26s7.92,3.69,7.92,8.92ZM727.79,43.74c0,3.77,2.04,7.14,5.62,7.14s5.65-3.32,5.65-7.32c0-3.5-1.83-7.17-5.62-7.17s-5.65,3.48-5.65,7.35Z"/>
      </g>
      <g>
        <path class="cls-3" d="M754.46,40.38h3.87c2.32,0,3.48.89,3.48,2.86,0,1.26-.57,1.91-1.52,2.32v.05l2.05,3.95h-2.68l-1.68-3.34h-.94v3.34h-2.58v-9.18ZM757.97,44.67c.91,0,1.28-.44,1.28-1.31s-.38-1.23-1.31-1.23h-.93v2.54h.95Z"/>
        <path class="cls-3" d="M757.79,53.78c-4.71,0-8.54-3.83-8.54-8.54s3.83-8.54,8.54-8.54,8.54,3.83,8.54,8.54-3.83,8.54-8.54,8.54ZM757.79,38.92c-3.49,0-6.33,2.84-6.33,6.33s2.84,6.33,6.33,6.33,6.33-2.84,6.33-6.33-2.84-6.33-6.33-6.33Z"/>
      </g>
    </g>
  </g>
</svg>